<svg width="512" height="512" viewBox="0 0 512 512" fill="none" xmlns="http://www.w3.org/2000/svg">
<rect width="512" height="512" rx="40" fill="#FF1616"/>
<path opacity="0.6" d="M252.13 122.35C365.18 122.35 422.93 165.75 436.58 226.3L303.93 256.75C310.929 223.85 286.08 209.85 251.78 209.85C212.23 209.85 198.929 227 198.929 249.4C198.929 273.9 220.28 288.25 250.03 288.25C270.68 288.25 282.58 283.7 288.53 274.95C278.379 309.6 264.73 347.75 253.53 384.15C131.379 395.7 86.2295 329.2 79.2295 252.9C73.6295 187.1 102.329 122.35 252.13 122.35ZM299.73 379.6V271.8C340.68 276.35 387.93 279.85 434.129 280.55V379.6H299.73Z" fill="white"/>
</svg>
