<svg width="126" height="126" viewBox="0 0 126 126" fill="none" xmlns="http://www.w3.org/2000/svg">
<g opacity="0.8">
<path d="M50.2272 42.3871C67.8194 32.2302 80.7053 33.7954 88.2695 41.9915L70.363 58.6477C68.4963 52.8992 63.3716 52.9531 58.0341 56.0347C51.8796 59.588 51.3506 63.4518 53.3631 66.9376C55.5642 70.7501 60.176 71.0649 64.8055 68.3921C68.0189 66.5368 69.462 64.7596 69.6017 62.8634C71.1352 69.1675 72.4387 76.3304 73.9662 83.001C55.9955 95.7728 42.995 89.4809 35.0506 78.2365C28.2674 68.5002 26.9161 55.8457 50.2272 42.3871ZM80.7467 78.1422L71.0616 61.367C77.8428 58.3959 85.51 54.6955 92.7621 50.6537L101.661 66.0673L80.7467 78.1422Z" fill="white"/>
</g>
</svg>
